#!OML:ASF H:\Terrain\Patient Classification 1\Takeo\Monday\TakeoMonday.ASF
:FULLY-SPECIFIED
:DEGREES
1736
root 11.2434 17.829 -0.196612 -4.07383 -24.6474 0.336653
lowerback 4.17526 -4.74527 -4.68472
upperback 3.23758 -6.55082 4.25471
thorax 2.06135 -3.47742 7.15688
lowerneck -0.627831 -14.3386 -11.7703
upperneck 30.6265 -23.9061 11.0885
head 13.2839 -11.2515 2.9644
rclavicle 5.15846e-014 -1.90833e-014
rhumerus -14.4508 -16.4071 -75.2661
rradius 11.9373
rwrist 7.95824
rhand -18.2933 20.3205
rfingers 7.12502
rthumb 7.98722 -9.50859
lclavicle 5.15846e-014 -1.90833e-014
lhumerus -10.0308 -63.8331 95.4641
lradius 109.61
lwrist 65.5724
lhand -11.9793 28.4949
lfingers 7.12502
lthumb 14.077 57.9981
rfemur -1.14394 11.2622 14.9708
rtibia 16.0783
rfoot -7.86113 -9.39697
rtoes -7.42584
lfemur 3.54549 8.17312 -25.3497
ltibia 16.5552
lfoot -18.9528 25.9705
ltoes 2.748
1737
root 11.2442 17.8227 -0.197766 -4.15401 -24.6974 0.455214
lowerback 4.34859 -4.86083 -4.89376
upperback 3.07938 -6.71505 4.27856
thorax 1.85492 -3.55408 7.32408
lowerneck -0.744052 -14.2588 -11.9923
upperneck 30.7246 -23.7654 11.0227
head 13.3496 -11.2117 2.98317
rclavicle -6.43068e-014 1.43125e-014
rhumerus -14.2743 -16.7636 -75.0414
rradius 11.9835
rwrist 7.50066
rhand -18.5271 20.1744
rfingers 7.12502
rthumb 7.76163 -9.66316
lclavicle -6.43068e-014 1.43125e-014
lhumerus -8.65335 -64.5557 94.7805
lradius 109.853
lwrist 65.4982
lhand -11.8193 28.8813
lfingers 7.12502
lthumb 14.2311 58.3738
rfemur -0.999039 11.234 14.8572
rtibia 15.8192
rfoot -7.69712 -9.36756
rtoes -7.31192
lfemur 3.4223 8.45569 -25.4194
ltibia 16.9065
lfoot -19.1146 25.7255
ltoes -3.47941
1738
root 11.2498 17.8212 -0.202371 -3.95105 -24.762 -0.052484
lowerback 4.45688 -5.01259 -4.42623
upperback 3.04214 -6.90563 4.33028
thorax 1.73538 -3.6362 7.12795
lowerneck -1.02492 -14.2063 -11.7072
upperneck 30.8193 -23.6135 10.7335
head 13.3336 -11.1282 2.8417
rclavicle 5.92378e-014 7.15625e-015
rhumerus -13.908 -16.8603 -75.1503
rradius 12.0735
rwrist 6.70933
rhand -19.1787 19.6847
rfingers 7.12502
rthumb 7.13265 -10.1751
lclavicle 5.92378e-014 7.15625e-015
lhumerus -6.53044 -65.3195 92.9589
lradius 110.221
lwrist 65.8557
lhand -11.9904 29.0049
lfingers 7.12502
lthumb 14.0662 58.5089
rfemur -0.953855 11.2095 15.3822
rtibia 15.673
rfoot -7.64924 -9.34119
rtoes -7.93196
lfemur 3.3294 8.49117 -24.9119
ltibia 17.0915
lfoot -19.2533 25.6789
ltoes 2.00985
1739
root 11.2537 17.8243 -0.202676 -3.80335 -24.7629 -0.379138
lowerback 4.44154 -5.1718 -4.01217
upperback 3.04257 -7.10148 4.21838
thorax 1.70689 -3.72216 6.77585
lowerneck -1.21253 -14.0759 -11.0987
upperneck 30.7518 -23.3672 10.5005
head 13.1773 -10.978 2.70728
rclavicle 7.35503e-015 1.27222e-014
rhumerus -13.6398 -16.9183 -75.4921
rradius 12.3392
rwrist 5.67929
rhand -19.7055 19.4932
rfingers 7.12502
rthumb 6.62412 -10.3832
lclavicle 7.35503e-015 1.27222e-014
lhumerus -4.69209 -66.1526 91.3354
lradius 110.542
lwrist 66.3379
lhand -12.6904 28.8866
lfingers 7.12502
lthumb 13.3916 58.4362
rfemur -0.950712 11.25 15.7042
rtibia 15.5938
rfoot -7.5873 -9.33727
rtoes -7.3057
lfemur 3.27884 8.47708 -24.5867
ltibia 17.1479
lfoot -19.2823 25.6236
ltoes 3.77984
1740
root 11.256 17.8229 -0.195182 -3.94316 -24.8694 -0.0420632
lowerback 4.23732 -5.19848 -4.10695
upperback 3.06981 -7.13069 3.94322
thorax 1.82774 -3.73602 6.51639
lowerneck -1.64546 -13.9906 -10.626
upperneck 30.899 -23.2004 10.2554
head 13.1966 -10.8543 2.54627
rclavicle 6.52014e-014 -2.46493e-014
rhumerus -13.498 -17.1139 -75.6468
rradius 12.8492
rwrist 4.50247
rhand -19.9615 19.188
rfingers 7.12502
rthumb 6.37696 -10.696
lclavicle 6.52014e-014 -2.46493e-014
lhumerus -3.00686 -67.3755 90.1113
lradius 110.833
lwrist 66.6614
lhand -14.2032 28.7395
lfingers 7.12502
lthumb 11.9331 58.3794
rfemur -0.966679 11.2524 15.321
rtibia 15.6203
rfoot -7.58418 -9.16888
rtoes -6.75836
lfemur 3.34586 8.18634 -25.0065
ltibia 17.0804
lfoot -19.5423 25.889
ltoes 4.22348
1741
root 11.2582 17.8178 -0.191021 -4.10735 -25.0106 0.370832
lowerback 4.25336 -5.16412 -4.60984
upperback 2.98294 -7.10024 3.9439
thorax 1.78858 -3.72807 6.80438
lowerneck -2.17593 -14.1469 -10.7468
upperneck 31.2441 -23.3086 9.83279
head 13.4194 -10.9113 2.33393
rclavicle 4.77083e-014 -1.59028e-014
rhumerus -13.3038 -16.3254 -75.3445
rradius 13.506
rwrist 2.54919
rhand -20.0962 18.8199
rfingers 7.12502
rthumb 6.24695 -11.068
lclavicle 4.77083e-014 -1.59028e-014
lhumerus -1.31975 -68.3353 89.3
lradius 110.963
lwrist 66.6408
lhand -14.4923 28.7273
lfingers 7.12502
lthumb 11.6544 58.3832
rfemur -1.0846 11.222 14.8722
rtibia 15.8636
rfoot -7.72655 -8.95144
rtoes -7.66005
lfemur 3.49637 7.93158 -25.5005
ltibia 16.8023
lfoot -19.7963 26.1433
ltoes 5.12595
1742
root 11.256 17.8134 -0.189911 -4.29338 -25.0823 0.67294
lowerback 4.60889 -5.23785 -5.39432
upperback 2.76709 -7.24022 4.15413
thorax 1.51956 -3.80479 7.51486
lowerneck -1.91073 -14.3055 -11.1785
upperneck 30.9337 -23.4021 9.67365
head 13.279 -11.0352 2.34093
rclavicle 5.34731e-014 -1.51076e-014
rhumerus -13.0426 -15.7701 -74.8276
rradius 14.0018
rwrist 1.50263
rhand -19.9209 19.0339
rfingers 7.12502
rthumb 6.4162 -10.8489
lclavicle 5.34731e-014 -1.51076e-014
lhumerus -0.0574811 -68.692 88.8711
lradius 110.943
lwrist 66.1428
lhand -13.5848 28.5481
lfingers 7.12502
lthumb 12.5295 58.1525
rfemur -1.15175 11.2845 14.5895
rtibia 16.1679
rfoot -8.02466 -8.8304
rtoes -9.24148
lfemur 3.71787 8.32037 -25.7302
ltibia 16.4766
lfoot -19.115 26.0649
ltoes 3.94293
1743
root 11.2553 17.8118 -0.189751 -4.265 -25.2539 0.649195
lowerback 4.70981 -5.36797 -5.69329
upperback 2.63359 -7.43187 4.30486
thorax 1.41882 -3.90291 7.86013
lowerneck -1.41188 -14.313 -11.4583
upperneck 30.2299 -23.3182 9.79015
head 12.9211 -11.065 2.48918
rclavicle -3.57812e-014 -2.46493e-014
rhumerus -12.5812 -15.9964 -74.5754
rradius 14.3182
rwrist 1.41776
rhand -20.0508 19.4062
rfingers 7.12502
rthumb 6.29073 -10.4804
lclavicle -3.57812e-014 -2.46493e-014
lhumerus 1.43545 -69.0119 87.8441
lradius 111.05
lwrist 65.6823
lhand -13.4003 28.3884
lfingers 7.12502
lthumb 12.7073 57.9817
rfemur -1.34247 11.4879 14.6263
rtibia 16.4055
rfoot -8.2694 -8.80964
rtoes -9.36584
lfemur 3.77024 8.59002 -25.6551
ltibia 16.2975
lfoot -18.5801 26.0348
ltoes 3.00219
1744
root 11.2564 17.8158 -0.192164 -4.10609 -25.4901 0.499501
lowerback 4.61319 -5.34698 -5.64308
upperback 2.57663 -7.3991 4.40486
thorax 1.41456 -3.88557 7.93118
lowerneck -1.32147 -14.4183 -11.6452
upperneck 29.7029 -23.3702 9.8631
head 12.7243 -11.1162 2.54436
rclavicle -2.92213e-014 -6.36111e-015
rhumerus -12.0531 -16.6092 -74.2161
rradius 14.5875
rwrist 1.10536
rhand -20.4523 19.6553
rfingers 7.12502
rthumb 5.90313 -10.2425
lclavicle -2.92213e-014 -6.36111e-015
lhumerus 3.35292 -69.6501 86.5788
lradius 111.24
lwrist 65.6614
lhand -13.3232 28.664
lfingers 7.12502
lthumb 12.7816 58.2528
rfemur -1.64421 11.7254 14.7694
rtibia 16.6295
rfoot -8.29389 -8.88657
rtoes -8.27063
lfemur 3.71056 8.58424 -25.5218
ltibia 16.1963
lfoot -19.0146 25.9819
ltoes 4.3173
1745
root 11.2532 17.8178 -0.195966 -4.10336 -25.6472 0.55378
lowerback 4.49206 -5.21641 -5.5574
upperback 2.57166 -7.21301 4.26561
thorax 1.4124 -3.78603 7.72392
lowerneck -1.32935 -14.6123 -11.795
upperneck 29.2982 -23.6776 10.2246
head 12.678 -11.2401 2.63944
rclavicle 2.48481e-014 -1.27222e-014
rhumerus -11.7489 -17.1481 -73.847
rradius 15.0904
rwrist -0.0469434
rhand -20.352 19.6284
rfingers 7.12502
rthumb 6.00001 -10.2666
lclavicle 2.48481e-014 -1.27222e-014
lhumerus 5.44492 -70.7196 85.0526
lradius 111.42
lwrist 65.8575
lhand -12.9141 28.8642
lfingers 7.12502
lthumb 13.176 58.4279
rfemur -1.78947 11.9352 14.724
rtibia 16.8159
rfoot -8.28438 -8.97147
rtoes -7.38477
lfemur 3.72906 8.64495 -25.5724
ltibia 16.1164
lfoot -19.4588 25.8951
ltoes 5.32029
1746
root 11.2524 17.8121 -0.19825 -4.23958 -25.7589 0.854033
lowerback 4.31257 -5.21547 -5.56436
upperback 2.6387 -7.19804 3.85537
thorax 1.52386 -3.77484 7.27046
lowerneck -1.36568 -14.7239 -11.6643
upperneck 29.0404 -23.9534 10.6552
head 12.6673 -11.3177 2.72412
rclavicle -1.08338e-014 1.82882e-014
rhumerus -11.48 -16.8759 -74.0409
rradius 15.9272
rwrist -1.88965
rhand -20.3126 19.2524
rfingers 7.12502
rthumb 6.03804 -10.6415
lclavicle -1.08338e-014 1.82882e-014
lhumerus 7.61767 -71.6342 82.8365
lradius 111.65
lwrist 65.9042
lhand -12.9584 28.3627
lfingers 7.12502
lthumb 13.1333 57.9291
rfemur -1.86408 12.0043 14.4174
rtibia 16.9474
rfoot -8.29507 -8.90943
rtoes -6.99864
lfemur 3.76066 8.71241 -25.8733
ltibia 16.045
lfoot -19.4878 25.9414
ltoes 5.39143
1747
root 11.2579 17.8094 -0.198759 -4.35863 -25.8942 1.04017
lowerback 4.27732 -5.33897 -5.63407
upperback 2.70124 -7.35992 3.56127
thorax 1.60412 -3.85585 6.99021
lowerneck -1.47864 -14.7351 -11.2068
upperneck 28.7733 -23.9572 10.668
head 12.5141 -11.2818 2.6632
rclavicle -9.93923e-017 -1.82882e-014
rhumerus -10.9565 -16.6825 -74.3767
rradius 16.7279
rwrist -3.11547
rhand -20.6323 18.8797
rfingers 7.12502
rthumb 5.72933 -11.0229
lclavicle -9.93923e-017 -1.82882e-014
lhumerus 9.64189 -72.0156 80.6942
lradius 111.963
lwrist 65.9546
lhand -13.2702 27.616
lfingers 7.12502
lthumb 12.8328 57.2015
rfemur -1.96753 12.0171 14.214
rtibia 17.1115
rfoot -8.30799 -8.75097
rtoes -7.28532
lfemur 3.83855 8.8264 -26.0579
ltibia 15.923
lfoot -19.4154 26.0256
ltoes 5.34153
1748
root 11.2634 17.8102 -0.198292 -4.30275 -26.2518 0.863312
lowerback 4.26239 -5.3452 -5.40124
upperback 2.69532 -7.35827 3.48887
thorax 1.56477 -3.84726 6.7836
lowerneck -1.46979 -14.7608 -11.031
upperneck 28.3804 -23.9352 10.6901
head 12.3244 -11.2687 2.65863
rclavicle 2.04748e-014 -2.38542e-014
rhumerus -10.3666 -16.9501 -74.2935
rradius 17.2926
rwrist -3.70803
rhand -20.9082 18.6864
rfingers 7.12502
rthumb 5.46297 -11.2232
lclavicle 2.04748e-014 -2.38542e-014
lhumerus 11.3118 -72.4026 79.2313
lradius 112.261
lwrist 66.0928
lhand -13.4969 27.3879
lfingers 7.12502
lthumb 12.6142 56.987
rfemur -2.1211 12.2192 14.3872
rtibia 17.2474
rfoot -8.32694 -8.57512
rtoes -7.34683
lfemur 3.91101 8.78043 -25.9221
ltibia 15.8117
lfoot -19.3596 26.456
ltoes 5.21139
1749
root 11.2636 17.8093 -0.197815 -4.25444 -26.6664 0.869908
lowerback 4.18231 -5.2677 -5.41904
upperback 2.6142 -7.25086 3.47171
thorax 1.50747 -3.78837 6.77293
lowerneck -1.3862 -14.8828 -11.2115
upperneck 27.9931 -24.0671 10.8221
head 12.2142 -11.3482 2.71532
rclavicle -2.62893e-014 -1.35174e-014
rhumerus -9.88555 -16.9803 -73.8754
rradius 17.8195
rwrist -4.38055
rhand -20.9425 18.9047
rfingers 7.12502
rthumb 5.42983 -11.0057
lclavicle -2.62893e-014 -1.35174e-014
lhumerus 12.8407 -72.8424 78.1393
lradius 112.452
lwrist 65.9867
lhand -13.9077 27.607
lfingers 7.12502
lthumb 12.2181 57.2301
rfemur -2.26101 12.3598 14.3715
rtibia 17.2097
rfoot -8.285 -8.34371
rtoes -7.44257
lfemur 3.83492 8.73404 -25.9812
ltibia 15.8696
lfoot -19.1973 27.0078
ltoes 4.99818
1750
root 11.2624 17.8107 -0.196479 -4.27333 -26.7967 0.977964
lowerback 4.29178 -5.34658 -5.79364
upperback 2.42338 -7.37502 3.5831
thorax 1.33279 -3.84766 7.12109
lowerneck -1.21255 -14.9539 -11.4444
upperneck 27.5752 -24.0498 10.7374
head 12.0274 -11.392 2.73918
rclavicle -9.24349e-014 -1.59028e-015
rhumerus -9.53702 -16.224 -73.3492
rradius 18.6387
rwrist -5.73956
rhand -20.6095 19.3038
rfingers 7.12502
rthumb 5.75136 -10.5981
lclavicle -9.24349e-014 -1.59028e-015
lhumerus 13.9225 -72.9425 77.5842
lradius 112.634
lwrist 65.7409
lhand -14.4577 28.0668
lfingers 7.12502
lthumb 11.6878 57.7208
rfemur -2.25622 12.3176 14.2537
rtibia 17.1036
rfoot -8.25838 -8.21472
rtoes -7.54803
lfemur 3.74042 8.93198 -26.0701
ltibia 16.0243
lfoot -19.2124 27.0351
ltoes 5.63538
